<svg viewBox="0 0 500 500" xmlns="http://www.w3.org/2000/svg" xmlns:xlink="http://www.w3.org/1999/xlink" width="100%" id="blobSvg" style="width: 64px;">
    <path id="blob" d="M441,276Q411,302,393,321.5Q375,341,335,326.5Q295,312,301.5,370Q308,428,279,427Q250,426,224,417.5Q198,409,187,380Q176,351,120.5,368Q65,385,67.5,346.5Q70,308,42.5,279Q15,250,62,227Q109,204,104.5,172.5Q100,141,141.5,149.5Q183,158,188.5,117.5Q194,77,222,94Q250,111,281.5,83Q313,55,339.5,72.5Q366,90,359.5,132.5Q353,175,352.5,196Q352,217,411.5,233.5Q471,250,441,276Z" fill="#f5bc00"></path>
</svg>
